# File produced by Open Asset Import Library (http://www.assimp.sf.net)
# (assimp v5.4.3276931299)

mtllib Icosphere_simed_baked.mtl

# 160 vertex positions
v 0.425323009 -0.850654006 0.309011012
v -0.162456006 -0.850654006 0.499994993
v 0 -1 0
v -0.525730014 -0.850651979 0
v 0.425323009 -0.850654006 0.309011012
v 0.850647986 -0.525735974 0
v 0.723607004 -0.447219998 0.525725007
v 0.951057971 0 0.309013009
v -0.525730014 -0.850651979 0
v -0.162456006 -0.850654006 -0.499994993
v 0 -1 0
v 0.425323009 -0.850654006 -0.309011012
v 0.262869 -0.525738001 0.809011996
v 0 0 1
v -0.27638799 -0.447219998 0.850648999
v -0.587786019 0 0.809017003
v -0.68818903 -0.525735974 0.49999699
v -0.951057971 0 0.309013009
v -0.894425988 -0.447216004 0
v -0.951057971 0 -0.309013009
v -0.68818903 -0.525735974 -0.49999699
v -0.587786019 0 -0.809017003
v -0.27638799 -0.447219998 -0.850648999
v 0 0 -1
v 0.262869 -0.525738001 -0.809011996
v 0.587786019 0 -0.809017003
v 0.723607004 -0.447219998 -0.525725007
v 0.951057971 0 -0.309013009
v 0.723607004 -0.447219998 0.525725007
v 0.951057971 0 0.309013009
v 0.587786019 0 0.809017003
v 0.68818903 0.525735974 0.49999699
v 0.162456006 0.850654006 0.499994993
v 0.27638799 0.447219998 0.850648999
v 0.68818903 0.525735974 0.49999699
v 0.587786019 0 0.809017003
v -0.723607004 0.447219998 0.525725007
v -0.262869 0.525738001 0.809011996
v -0.425323009 0.850654006 0.309011012
v 0.162456006 0.850654006 0.499994993
v -0.723607004 0.447219998 -0.525725007
v -0.850647986 0.525735974 0
v -0.425323009 0.850654006 -0.309011012
v -0.425323009 0.850654006 0.309011012
v 0.27638799 0.447219998 -0.850648999
v -0.262869 0.525738001 -0.809011996
v 0.162456006 0.850654006 -0.499994993
v -0.425323009 0.850654006 -0.309011012
v 0.894425988 0.447216004 0
v 0.68818903 0.525735974 -0.49999699
v 0.525730014 0.850651979 0
v 0.162456006 0.850654006 -0.499994993
v 0.525730014 0.850651979 0
v 0.162456006 0.850654006 -0.499994993
v 0 1 0
v -0.425323009 0.850654006 -0.309011012
v 0.162456006 0.850654006 -0.499994993
v 0.68818903 0.525735974 -0.49999699
v 0.27638799 0.447219998 -0.850648999
v 0.587786019 0 -0.809017003
v -0.425323009 0.850654006 -0.309011012
v -0.262869 0.525738001 -0.809011996
v -0.723607004 0.447219998 -0.525725007
v -0.587786019 0 -0.809017003
v -0.425323009 0.850654006 -0.309011012
v -0.425323009 0.850654006 0.309011012
v 0 1 0
v 0.162456006 0.850654006 0.499994993
v -0.425323009 0.850654006 0.309011012
v -0.850647986 0.525735974 0
v -0.723607004 0.447219998 0.525725007
v -0.951057971 0 0.309013009
v 0.162456006 0.850654006 0.499994993
v -0.262869 0.525738001 0.809011996
v 0.27638799 0.447219998 0.850648999
v 0 0 1
v 0 1 0
v 0.162456006 0.850654006 0.499994993
v 0.525730014 0.850651979 0
v 0.68818903 0.525735974 0.49999699
v 0.525730014 0.850651979 0
v 0.68818903 0.525735974 0.49999699
v 0.894425988 0.447216004 0
v 0.951057971 0 0.309013009
v 0.894425988 0.447216004 0
v 0.951057971 0 -0.309013009
v 0.68818903 0.525735974 -0.49999699
v 0.587786019 0 -0.809017003
v 0.27638799 0.447219998 -0.850648999
v 0 0 -1
v -0.262869 0.525738001 -0.809011996
v -0.587786019 0 -0.809017003
v -0.723607004 0.447219998 -0.525725007
v -0.951057971 0 -0.309013009
v -0.850647986 0.525735974 0
v -0.951057971 0 0.309013009
v -0.723607004 0.447219998 0.525725007
v -0.587786019 0 0.809017003
v -0.262869 0.525738001 0.809011996
v 0 0 1
v 0.27638799 0.447219998 -0.850648999
v 0.587786019 0 -0.809017003
v 0 0 -1
v 0.262869 -0.525738001 -0.809011996
v 0 0 -1
v 0.262869 -0.525738001 -0.809011996
v -0.27638799 -0.447219998 -0.850648999
v -0.162456006 -0.850654006 -0.499994993
v -0.723607004 0.447219998 -0.525725007
v -0.587786019 0 -0.809017003
v -0.951057971 0 -0.309013009
v -0.68818903 -0.525735974 -0.49999699
v -0.951057971 0 -0.309013009
v -0.68818903 -0.525735974 -0.49999699
v -0.894425988 -0.447216004 0
v -0.525730014 -0.850651979 0
v -0.723607004 0.447219998 0.525725007
v -0.951057971 0 0.309013009
v -0.587786019 0 0.809017003
v -0.68818903 -0.525735974 0.49999699
v -0.587786019 0 0.809017003
v -0.68818903 -0.525735974 0.49999699
v -0.27638799 -0.447219998 0.850648999
v -0.162456006 -0.850654006 0.499994993
v 0.27638799 0.447219998 0.850648999
v 0 0 1
v 0.587786019 0 0.809017003
v 0.262869 -0.525738001 0.809011996
v 0.587786019 0 0.809017003
v 0.262869 -0.525738001 0.809011996
v 0.723607004 -0.447219998 0.525725007
v 0.425323009 -0.850654006 0.309011012
v 0.894425988 0.447216004 0
v 0.951057971 0 0.309013009
v 0.951057971 0 -0.309013009
v 0.850647986 -0.525735974 0
v 0.951057971 0 -0.309013009
v 0.850647986 -0.525735974 0
v 0.723607004 -0.447219998 -0.525725007
v 0.425323009 -0.850654006 -0.309011012
v 0.723607004 -0.447219998 -0.525725007
v 0.425323009 -0.850654006 -0.309011012
v 0.262869 -0.525738001 -0.809011996
v -0.162456006 -0.850654006 -0.499994993
v -0.27638799 -0.447219998 -0.850648999
v -0.162456006 -0.850654006 -0.499994993
v -0.68818903 -0.525735974 -0.49999699
v -0.525730014 -0.850651979 0
v -0.894425988 -0.447216004 0
v -0.525730014 -0.850651979 0
v -0.68818903 -0.525735974 0.49999699
v -0.162456006 -0.850654006 0.499994993
v 0.850647986 -0.525735974 0
v 0.425323009 -0.850654006 0.309011012
v 0.425323009 -0.850654006 -0.309011012
v 0 -1 0
v -0.27638799 -0.447219998 0.850648999
v -0.162456006 -0.850654006 0.499994993
v 0.262869 -0.525738001 0.809011996
v 0.425323009 -0.850654006 0.309011012

# 160 UV coordinates
vt 0 0 0
vt 0 145 0
vt 145 0 0
vt 145 145 0
vt 0 146 0
vt 0 291 0
vt 145 146 0
vt 145 291 0
vt 0 292 0
vt 0 437 0
vt 145 292 0
vt 145 437 0
vt 0 438 0
vt 0 583 0
vt 145 438 0
vt 145 583 0
vt 0 584 0
vt 0 729 0
vt 145 584 0
vt 145 729 0
vt 0 730 0
vt 0 875 0
vt 145 730 0
vt 145 875 0
vt 0 876 0
vt 0 1021 0
vt 145 876 0
vt 145 1021 0
vt 146 0 0
vt 146 145 0
vt 291 0 0
vt 291 145 0
vt 146 146 0
vt 146 291 0
vt 291 146 0
vt 291 291 0
vt 146 292 0
vt 146 437 0
vt 291 292 0
vt 291 437 0
vt 146 438 0
vt 146 583 0
vt 291 438 0
vt 291 583 0
vt 146 584 0
vt 146 729 0
vt 291 584 0
vt 291 729 0
vt 146 730 0
vt 146 875 0
vt 291 730 0
vt 291 875 0
vt 146 876 0
vt 146 1021 0
vt 291 876 0
vt 291 1021 0
vt 292 0 0
vt 292 145 0
vt 437 0 0
vt 437 145 0
vt 292 146 0
vt 292 291 0
vt 437 146 0
vt 437 291 0
vt 292 292 0
vt 292 437 0
vt 437 292 0
vt 437 437 0
vt 292 438 0
vt 292 583 0
vt 437 438 0
vt 437 583 0
vt 292 584 0
vt 292 729 0
vt 437 584 0
vt 437 729 0
vt 292 730 0
vt 292 875 0
vt 437 730 0
vt 437 875 0
vt 292 876 0
vt 292 1021 0
vt 437 876 0
vt 437 1021 0
vt 438 0 0
vt 438 145 0
vt 583 0 0
vt 583 145 0
vt 438 146 0
vt 438 291 0
vt 583 146 0
vt 583 291 0
vt 438 292 0
vt 438 437 0
vt 583 292 0
vt 583 437 0
vt 438 438 0
vt 438 583 0
vt 583 438 0
vt 583 583 0
vt 438 584 0
vt 438 729 0
vt 583 584 0
vt 583 729 0
vt 438 730 0
vt 438 875 0
vt 583 730 0
vt 583 875 0
vt 438 876 0
vt 438 1021 0
vt 583 876 0
vt 583 1021 0
vt 584 0 0
vt 584 145 0
vt 729 0 0
vt 729 145 0
vt 584 146 0
vt 584 291 0
vt 729 146 0
vt 729 291 0
vt 584 292 0
vt 584 437 0
vt 729 292 0
vt 729 437 0
vt 584 438 0
vt 584 583 0
vt 729 438 0
vt 729 583 0
vt 584 584 0
vt 584 729 0
vt 729 584 0
vt 729 729 0
vt 584 730 0
vt 584 875 0
vt 729 730 0
vt 729 875 0
vt 584 876 0
vt 584 1021 0
vt 729 876 0
vt 729 1021 0
vt 730 0 0
vt 730 145 0
vt 875 0 0
vt 875 145 0
vt 730 146 0
vt 730 291 0
vt 875 146 0
vt 875 291 0
vt 730 292 0
vt 730 437 0
vt 875 292 0
vt 875 437 0
vt 730 438 0
vt 730 583 0
vt 875 438 0
vt 875 583 0
vt 730 584 0
vt 730 729 0
vt 875 584 0
vt 875 729 0

# 42 vertex normals
vn 2.39986348 -4.79975891 1.74358797
vn -0.916656554 -4.79976034 2.82119751
vn -7.74860382e-07 -4.71761608 -2.98023224e-08
vn -2.96639061 -4.79974937 0
vn 4.79973125 -2.96642208 0
vn 3.41369891 -2.10979891 2.48017478
vn 5.3662734 -1.56462193e-06 1.74360061
vn -0.916656554 -4.79975986 -2.82119751
vn 2.39986324 -4.79975939 -1.74358809
vn 1.48321486 -2.96642756 4.56480074
vn 0 0 5.64242935
vn -1.30390227 -2.10980272 4.01302958
vn -3.31654167 -1.63912773e-06 4.56481361
vn -3.88306212 -2.96642113 2.82120967
vn -5.36627293 1.54972076e-06 1.74360061
vn -4.21955585 -2.10978985 -2.98023224e-08
vn -5.36627293 1.51991844e-06 -1.74360061
vn -3.88306212 -2.96642089 -2.82120967
vn -3.31654191 -1.63912773e-06 -4.56481361
vn -1.30390239 -2.10980272 -4.01302958
vn -1.3038516e-08 -2.98023224e-08 -5.64242935
vn 1.48321509 -2.96642733 -4.56480026
vn 3.31654215 1.69873238e-06 -4.56481361
vn 3.41369867 -2.10979891 -2.48017478
vn 5.3662734 -1.60932541e-06 -1.74360061
vn 3.31654215 1.57952309e-06 4.56481361
vn 3.88306189 2.96642113 2.82120991
vn 0.916656613 4.79975986 2.82119751
vn 1.30390239 2.10980272 4.01302958
vn -3.41369891 2.10979891 2.48017502
vn -1.48321497 2.96642733 4.56480026
vn -2.39986348 4.79975939 1.74358821
vn -3.41369867 2.10979891 -2.48017502
vn -4.79973125 2.96642184 0
vn -2.39986324 4.79975939 -1.74358797
vn 1.30390239 2.10980272 -4.01302958
vn -1.48321509 2.96642733 -4.56480026
vn 0.916656792 4.79976034 -2.82119751
vn 4.21955538 2.10978985 0
vn 3.88306212 2.96642137 -2.82120967
vn 2.96639061 4.79974937 2.98023224e-08
vn 8.04662704e-07 4.7176156 1.49011612e-08

# Mesh '' with 80 faces
usemtl $Material_0
f  1/1/1 2/2/2 3/3/3
f  3/3/3 2/2/2 4/4/4
f  5/5/1 6/6/5 7/7/6
f  7/7/6 6/6/5 8/8/7
f  9/9/4 10/10/8 11/11/3
f  11/11/3 10/10/8 12/12/9
f  13/13/10 14/14/11 15/15/12
f  15/15/12 14/14/11 16/16/13
f  17/17/14 18/18/15 19/19/16
f  19/19/16 18/18/15 20/20/17
f  21/21/18 22/22/19 23/23/20
f  23/23/20 22/22/19 24/24/21
f  25/25/22 26/26/23 27/27/24
f  27/27/24 26/26/23 28/28/25
f  29/29/6 30/30/7 31/31/26
f  31/31/26 30/30/7 32/32/27
f  33/33/28 34/34/29 35/35/27
f  35/35/27 34/34/29 36/36/26
f  37/37/30 38/38/31 39/39/32
f  39/39/32 38/38/31 40/40/28
f  41/41/33 42/42/34 43/43/35
f  43/43/35 42/42/34 44/44/32
f  45/45/36 46/46/37 47/47/38
f  47/47/38 46/46/37 48/48/35
f  49/49/39 50/50/40 51/51/41
f  51/51/41 50/50/40 52/52/38
f  53/53/41 54/54/38 55/55/42
f  55/55/42 54/54/38 56/56/35
f  57/57/38 58/58/40 59/59/36
f  59/59/36 58/58/40 60/60/23
f  61/61/35 62/62/37 63/63/33
f  63/63/33 62/62/37 64/64/19
f  65/65/35 66/66/32 67/67/42
f  67/67/42 66/66/32 68/68/28
f  69/69/32 70/70/34 71/71/30
f  71/71/30 70/70/34 72/72/15
f  73/73/28 74/74/31 75/75/29
f  75/75/29 74/74/31 76/76/11
f  77/77/42 78/78/28 79/79/41
f  79/79/41 78/78/28 80/80/27
f  81/81/41 82/82/27 83/83/39
f  83/83/39 82/82/27 84/84/7
f  85/85/39 86/86/25 87/87/40
f  87/87/40 86/86/25 88/88/23
f  89/89/36 90/90/21 91/91/37
f  91/91/37 90/90/21 92/92/19
f  93/93/33 94/94/17 95/95/34
f  95/95/34 94/94/17 96/96/15
f  97/97/30 98/98/13 99/99/31
f  99/99/31 98/98/13 100/100/11
f  101/101/36 102/102/23 103/103/21
f  103/103/21 102/102/23 104/104/22
f  105/105/21 106/106/22 107/107/20
f  107/107/20 106/106/22 108/108/8
f  109/109/33 110/110/19 111/111/17
f  111/111/17 110/110/19 112/112/18
f  113/113/17 114/114/18 115/115/16
f  115/115/16 114/114/18 116/116/4
f  117/117/30 118/118/15 119/119/13
f  119/119/13 118/118/15 120/120/14
f  121/121/13 122/122/14 123/123/12
f  123/123/12 122/122/14 124/124/2
f  125/125/29 126/126/11 127/127/26
f  127/127/26 126/126/11 128/128/10
f  129/129/26 130/130/10 131/131/6
f  131/131/6 130/130/10 132/132/1
f  133/133/39 134/134/7 135/135/25
f  135/135/25 134/134/7 136/136/5
f  137/137/25 138/138/5 139/139/24
f  139/139/24 138/138/5 140/140/9
f  141/141/24 142/142/9 143/143/22
f  143/143/22 142/142/9 144/144/8
f  145/145/20 146/146/8 147/147/18
f  147/147/18 146/146/8 148/148/4
f  149/149/16 150/150/4 151/151/14
f  151/151/14 150/150/4 152/152/2
f  153/153/5 154/154/1 155/155/9
f  155/155/9 154/154/1 156/156/3
f  157/157/12 158/158/2 159/159/10
f  159/159/10 158/158/2 160/160/1

